<svg width="21" height="20" viewBox="0 0 21 20" fill="none" xmlns="http://www.w3.org/2000/svg">
<path d="M10.3333 1.66666C5.7333 1.66666 1.99997 5.39999 1.99997 9.99999C1.99997 14.6 5.7333 18.3333 10.3333 18.3333C14.9333 18.3333 18.6666 14.6 18.6666 9.99999C18.6666 5.39999 14.9333 1.66666 10.3333 1.66666ZM10.3333 16.6667C6.6583 16.6667 3.66664 13.675 3.66664 9.99999C3.66664 6.32499 6.6583 3.33332 10.3333 3.33332C14.0083 3.33332 17 6.32499 17 9.99999C17 13.675 14.0083 16.6667 10.3333 16.6667ZM14.1583 6.31666L8.66664 11.8083L6.5083 9.65832L5.3333 10.8333L8.66664 14.1667L15.3333 7.49999L14.1583 6.31666Z" fill="#4C7F8F"/>
</svg>
