<svg width="28" height="28" viewBox="0 0 28 28" fill="none" xmlns="http://www.w3.org/2000/svg">
<path fill-rule="evenodd" clip-rule="evenodd" d="M13.0797 2.37107C15.2365 2.19701 17.3957 2.63822 19.3172 3.64179C21.2382 4.64507 22.8431 6.16908 23.9606 8.03839C25.0778 9.90727 25.6666 12.0515 25.6666 14.2347C25.6666 15.5233 24.6219 16.568 23.3333 16.568C22.0446 16.568 20.9999 15.5233 20.9999 14.2347C20.9999 12.8889 20.6366 11.573 19.9551 10.433C19.2739 9.29339 18.3033 8.37703 17.1568 7.77827C16.0109 7.17979 14.7303 6.9197 13.4551 7.02261C12.1798 7.12553 10.9518 7.58821 9.90744 8.36604C8.86256 9.14428 8.04081 10.2091 7.54031 11.4479C7.03967 12.687 6.88219 14.0469 7.08753 15.3754C7.29284 16.7038 7.85173 17.9421 8.69573 18.9549L6.93553 20.4217L8.69573 18.9549C9.53932 19.9673 10.6337 20.714 11.8536 21.1202C13.0762 21.5273 13.7373 22.8485 13.3302 24.0712C12.9231 25.2938 11.6019 25.9549 10.3792 25.5478C8.32494 24.8638 6.50299 23.6133 5.11063 21.9424L6.90318 20.4486L5.11063 21.9424C3.71866 20.2719 2.80903 18.2454 2.47562 16.0883C2.14224 13.9313 2.39682 11.721 3.21346 9.69972C4.03024 7.67813 5.37969 5.91953 7.11987 4.62342L8.51366 6.49473L7.11987 4.62342C8.86059 3.3269 10.923 2.54512 13.0797 2.37107Z" fill="white"/>
</svg>
