<svg width="84" height="32" viewBox="0 0 84 32" fill="none" xmlns="http://www.w3.org/2000/svg">
<path d="M15.9826 15.386C17.4893 15.386 18.5319 15.1269 19.1105 14.6086L19.2551 14.7351C18.7248 15.8802 17.9654 16.7299 16.977 17.2844C16.3623 17.6219 15.4583 17.7906 14.265 17.7906C14.1445 17.7906 13.9336 17.7846 13.6322 17.7725C13.343 17.7605 12.8669 17.658 12.2039 17.4652C11.5531 17.2844 11.0046 17.1156 10.5587 16.959C10.1127 16.8143 9.55222 16.5853 8.87723 16.2719C8.0335 15.8742 7.22594 15.4704 6.45453 15.0606C5.68312 14.6628 5.11661 14.3735 4.75502 14.1927C4.40547 14.0119 4.03785 13.8372 3.65214 13.6684C3.26644 13.5117 2.73609 13.355 2.06111 13.1983C1.38613 13.0537 0.69909 12.9814 0 12.9814V12.8006H0.235039C0.668957 12.8006 1.00042 12.6137 1.22943 12.2401C1.32586 12.0713 1.3801 11.8785 1.39215 11.6615V1.64527C1.3801 1.1993 1.18122 0.867836 0.795516 0.650877C0.62677 0.55445 0.439944 0.506237 0.235039 0.506237H0V0.325438H6.49069V0.506237H6.32797C5.97842 0.506237 5.68914 0.614717 5.46013 0.831676C5.23112 1.04863 5.11059 1.31983 5.09853 1.64527V12.1678C5.09853 12.7343 5.32755 13.0899 5.78557 13.2345C10.4502 14.6688 13.8492 15.386 15.9826 15.386Z" fill="black"/>
<path d="M15.3799 0.0723198C16.9348 0.0723198 18.2727 0.331465 19.3937 0.849756C20.5267 1.36805 21.3945 2.1274 21.9972 3.12782C22.5998 4.11619 22.9012 5.29139 22.9012 6.6534C22.9012 8.71451 22.2322 10.3297 20.8943 11.4988C19.5564 12.6559 17.7183 13.2345 15.3799 13.2345C13.0416 13.2345 11.2035 12.6559 9.86555 11.4988C8.53969 10.3297 7.87676 8.71451 7.87676 6.6534C7.87676 4.5923 8.53969 2.98318 9.86555 1.82607C11.2035 0.656903 13.0416 0.0723198 15.3799 0.0723198ZM12.7945 10.8299C13.4213 11.8303 14.2831 12.3305 15.3799 12.3305C16.4888 12.3305 17.3506 11.8303 17.9654 10.8299C18.5921 9.82944 18.9055 8.43729 18.9055 6.6534C18.9055 4.86952 18.5921 3.47737 17.9654 2.47695C17.3506 1.47653 16.4888 0.976315 15.3799 0.976315C14.2831 0.976315 13.4213 1.47653 12.7945 2.47695C12.1798 3.47737 11.8724 4.86952 11.8724 6.6534C11.8724 8.43729 12.1798 9.82944 12.7945 10.8299Z" fill="black"/>
<path d="M35.3738 2.31423C35.5666 2.73609 35.663 3.17604 35.663 3.63406C35.663 4.08003 35.6148 4.47779 35.5184 4.82733C35.422 5.16483 35.2713 5.50232 35.0664 5.83981C34.6204 6.56301 33.855 7.00898 32.7703 7.17772C33.2403 7.31031 33.6622 7.54535 34.0358 7.88284C34.4336 8.22033 34.8073 8.69041 35.1568 9.29307C36.0608 10.8359 36.7539 11.8303 37.236 12.2763C37.5976 12.6137 38.0556 12.7885 38.6101 12.8006V12.9814H36.3501C34.7831 12.9814 33.6622 12.8066 32.9872 12.4571C32.0229 11.9629 31.3359 11.1131 30.9261 9.90779C30.8176 9.55824 30.7212 9.19062 30.6368 8.80491C30.5645 8.41921 30.4982 8.14198 30.4379 7.97324C30.3897 7.79244 30.3295 7.62972 30.2571 7.48508C30.1848 7.32839 30.1065 7.20786 30.0221 7.12348C29.8775 6.97884 29.7087 6.87036 29.5159 6.79804V6.61724H29.8051C30.5042 6.61724 31.0286 6.29783 31.3781 5.65901C31.5589 5.32152 31.6674 4.95992 31.7035 4.57422C31.7518 4.17646 31.7759 3.92937 31.7759 3.83294C31.7759 3.73651 31.7759 3.67625 31.7759 3.65214C31.6915 2.06111 31.0044 1.26559 29.7147 1.26559H28.9192V11.6615C28.9192 11.9749 29.0337 12.2461 29.2627 12.4751C29.4918 12.6921 29.763 12.8006 30.0763 12.8006H30.2933V12.9814H23.8026V12.8006H24.0377C24.351 12.8006 24.6162 12.6921 24.8332 12.4751C25.0622 12.2582 25.1827 11.993 25.1948 11.6796V1.64527C25.1827 1.1993 24.9899 0.867836 24.6162 0.650877C24.4354 0.55445 24.2426 0.506237 24.0377 0.506237H23.8026V0.325438H30.8719C33.2343 0.325438 34.7349 0.988368 35.3738 2.31423Z" fill="black"/>
<path d="M38.2664 12.8006C38.5798 12.8006 38.845 12.6921 39.0619 12.4751C39.2909 12.2461 39.4115 11.9749 39.4235 11.6615V1.64527C39.4115 1.25957 39.2487 0.952208 38.9354 0.723196C38.7425 0.578557 38.5195 0.506237 38.2664 0.506237H38.0314V0.325438H46.0408C46.5591 0.325438 47.0171 0.283252 47.4148 0.19888C47.8246 0.114506 48.0838 0.0482132 48.1923 0V3.72446H48.0115V3.57982C48.0115 2.61556 47.6619 1.94058 46.9628 1.55487C46.6253 1.36202 46.2216 1.25957 45.7515 1.24751H43.1299V6.29181H45.1006C45.6792 6.27975 46.1492 6.09293 46.5108 5.73133C46.8724 5.35768 47.0532 4.88157 47.0532 4.30302V4.2307H47.234V9.25691H47.0532V9.16651C47.0532 8.60001 46.8724 8.13596 46.5108 7.77436C46.1492 7.40071 45.6852 7.20786 45.1187 7.1958H43.1299V12.0593H45.3537C46.2336 12.0593 47.011 11.77 47.686 11.1915C48.361 10.6129 48.8371 9.81136 49.1143 8.78683H49.2951L48.6081 12.9814H38.0314V12.8006H38.2664Z" fill="black"/>
<path d="M37.383 31.9999C37.0937 31.9999 36.8045 31.9818 36.5152 31.9456C35.3098 31.7528 34.2672 31.3008 33.3873 30.5896C32.5075 29.8785 31.8506 28.9926 31.4166 27.9319C30.368 28.2573 29.2651 28.42 28.108 28.42C25.83 28.42 23.9798 27.8174 22.5575 26.612C21.1473 25.3947 20.4421 23.7976 20.4421 21.8209C20.4421 19.8441 21.1653 18.2591 22.6117 17.0659C24.0581 15.8605 25.9625 15.2579 28.325 15.2579C29.687 15.2579 31.0129 15.3965 32.3026 15.6737C32.8811 15.7942 33.3512 15.9268 33.7128 16.0715L33.532 19.5428H33.3693C33.08 18.4098 32.5075 17.5661 31.6517 17.0116C30.808 16.4451 29.7834 16.1619 28.5781 16.1619C27.3728 16.1619 26.3784 16.6922 25.5949 17.7529C24.8114 18.8136 24.4197 20.2118 24.4197 21.9474C24.4197 23.0443 24.5885 24.0146 24.926 24.8583C25.2634 25.702 25.7456 26.3589 26.3723 26.829C26.9991 27.287 27.6922 27.516 28.4515 27.516C29.2229 27.516 29.8256 27.3413 30.2595 26.9917C30.7055 26.6301 30.9285 26.16 30.9285 25.5815V23.1226C30.9405 22.8575 30.8622 22.6525 30.6934 22.5079C30.5368 22.3633 30.3077 22.2909 30.0064 22.2909H29.7352V22.1101H35.8101V22.2909H35.5208C35.2315 22.2909 35.0085 22.3633 34.8518 22.5079C34.6951 22.6525 34.6228 22.8575 34.6349 23.1226V26.0516C34.6349 26.7507 34.7735 27.4437 35.0507 28.1308C35.6775 29.6495 36.6779 30.6258 38.052 31.0597C38.4497 31.1802 38.8475 31.2405 39.2452 31.2405C39.643 31.2405 40.0347 31.1983 40.4204 31.1139L40.4566 31.2947C39.3718 31.7648 38.3473 31.9999 37.383 31.9999Z" fill="black"/>
<path d="M36.8057 27.9861C37.1191 27.9861 37.3843 27.8776 37.6012 27.6607C37.8303 27.4317 37.9508 27.1605 37.9628 26.8471V16.8308C37.9508 16.4451 37.7881 16.1378 37.4747 15.9087C37.2818 15.7641 37.0588 15.6918 36.8057 15.6918H36.5707V15.511H44.5801C45.0984 15.511 45.5564 15.4688 45.9542 15.3844C46.364 15.3001 46.6231 15.2338 46.7316 15.1855V18.91H46.5508V18.7654C46.5508 17.8011 46.2013 17.1261 45.5022 16.7404C45.1647 16.5476 44.7609 16.4451 44.2908 16.4331H41.6692V21.4774H43.6399C44.2185 21.4653 44.6886 21.2785 45.0502 20.9169C45.4118 20.5432 45.5926 20.0671 45.5926 19.4886V19.4162H45.7734V24.4425H45.5926V24.3521C45.5926 23.7856 45.4118 23.3215 45.0502 22.9599C44.6886 22.5863 44.2245 22.3934 43.658 22.3813H41.6692V27.2448H43.8931C44.7729 27.2448 45.5504 26.9556 46.2254 26.377C46.9003 25.7984 47.3764 24.9969 47.6537 23.9724H47.8345L47.1474 28.1669H36.5707V27.9861H36.8057Z" fill="black"/>
<path d="M63.3111 15.6918C63.0098 15.6918 62.7507 15.8003 62.5337 16.0172C62.3168 16.2221 62.2022 16.4752 62.1902 16.7766V26.1058C62.1902 26.9977 62.2505 27.6848 62.371 28.1669L62.4252 28.42H62.2625L53.6022 20.718V26.8832C53.6022 27.3172 53.7891 27.6366 54.1627 27.8415C54.3315 27.9379 54.5123 27.9861 54.7051 27.9861H55.0486V28.1669H48.4314V27.9861H48.7749C49.0762 27.9861 49.3354 27.8837 49.5523 27.6788C49.7693 27.4618 49.8778 27.1966 49.8778 26.8832V17.4998C49.8778 16.656 49.8175 15.9871 49.697 15.4929L49.6427 15.2398H49.8235L58.4838 22.9418V16.7947C58.4718 16.4813 58.3573 16.2221 58.1403 16.0172C57.9233 15.8003 57.6642 15.6918 57.3629 15.6918H57.0193V15.511H63.6366V15.6918H63.3111Z" fill="black"/>
<path d="M64.42 27.9861C64.7333 27.9861 64.9985 27.8776 65.2155 27.6607C65.4445 27.4317 65.565 27.1605 65.5771 26.8471V16.8127C65.565 16.4994 65.4445 16.2342 65.2155 16.0172C64.9985 15.8003 64.7333 15.6918 64.42 15.6918H64.1849V15.511H70.6756V15.6918H70.4406C70.1272 15.6918 69.856 15.8003 69.627 16.0172C69.41 16.2342 69.2955 16.4994 69.2834 16.8127V26.8471C69.2834 27.1605 69.3979 27.4317 69.627 27.6607C69.856 27.8776 70.1272 27.9861 70.4406 27.9861H70.6756V28.1669H64.1849V27.9861H64.42Z" fill="black"/>
<path d="M71.9768 27.9861C72.2902 27.9861 72.5553 27.8776 72.7723 27.6607C73.0013 27.4317 73.1218 27.1605 73.1339 26.8471V16.8308C73.1218 16.4451 72.9591 16.1378 72.6457 15.9087C72.4529 15.7641 72.2299 15.6918 71.9768 15.6918H71.7418V15.511H79.7511C80.2694 15.511 80.7275 15.4688 81.1252 15.3844C81.535 15.3001 81.7942 15.2338 81.9027 15.1855V18.91H81.7219V18.7654C81.7219 17.8011 81.3723 17.1261 80.6732 16.7404C80.3357 16.5476 79.9319 16.4451 79.4619 16.4331H76.8403V21.4774H78.811C79.3895 21.4653 79.8596 21.2785 80.2212 20.9169C80.5828 20.5432 80.7636 20.0671 80.7636 19.4886V19.4162H80.9444V24.4425H80.7636V24.3521C80.7636 23.7856 80.5828 23.3215 80.2212 22.9599C79.8596 22.5863 79.3956 22.3934 78.8291 22.3813H76.8403V27.2448H79.0641C79.944 27.2448 80.7214 26.9556 81.3964 26.377C82.0714 25.7984 82.5475 24.9969 82.8247 23.9724H83.0055L82.3185 28.1669H71.7418V27.9861H71.9768Z" fill="black"/>
</svg>
