<svg width="176" height="27" viewBox="0 0 176 27" fill="none" xmlns="http://www.w3.org/2000/svg">
<path d="M23.9566 23.0623C26.215 23.0623 27.7778 22.6739 28.645 21.897L28.8618 22.0867C28.0668 23.8031 26.9286 25.0768 25.4472 25.9079C24.5257 26.4137 23.1707 26.6667 21.3821 26.6667C21.2014 26.6667 20.8853 26.6576 20.4336 26.6396C20 26.6215 19.2864 26.4679 18.2927 26.1789C17.3171 25.9079 16.495 25.6549 15.8266 25.4201C15.1581 25.2033 14.318 24.86 13.3062 24.3902C12.0416 23.794 10.8311 23.1888 9.6748 22.5745C8.51852 21.9783 7.66938 21.5447 7.12737 21.2737C6.60343 21.0027 6.05239 20.7407 5.47426 20.4878C4.89612 20.2529 4.10117 20.0181 3.08943 19.7832C2.07769 19.5664 1.04788 19.458 0 19.458V19.187H0.352304C1.00271 19.187 1.49955 18.907 1.84282 18.3469C1.98735 18.0939 2.06865 17.8049 2.08672 17.4797V2.46613C2.06865 1.79765 1.77055 1.30081 1.19241 0.97561C0.939476 0.831075 0.65944 0.758808 0.352304 0.758808H0V0.487805H9.729V0.758808H9.4851C8.96116 0.758808 8.52755 0.921409 8.18428 1.24661C7.84101 1.57182 7.66034 1.97832 7.64228 2.46613V18.2385C7.64228 19.0876 7.98555 19.6206 8.67209 19.8374C15.664 21.9874 20.7588 23.0623 23.9566 23.0623Z" fill="#DA5D49"/>
<path d="M23.0532 0.108401C25.3839 0.108401 27.3893 0.496839 29.0695 1.27371C30.7678 2.05059 32.0686 3.1888 32.9719 4.68835C33.8753 6.16983 34.3269 7.93135 34.3269 9.9729C34.3269 13.0623 33.3242 15.4833 31.3188 17.2358C29.3134 18.9702 26.5582 19.8374 23.0532 19.8374C19.5483 19.8374 16.7931 18.9702 14.7876 17.2358C12.8003 15.4833 11.8066 13.0623 11.8066 9.9729C11.8066 6.88347 12.8003 4.47155 14.7876 2.73713C16.7931 0.984643 19.5483 0.108401 23.0532 0.108401ZM19.1779 16.2331C20.1174 17.7326 21.4091 18.4824 23.0532 18.4824C24.7154 18.4824 26.0072 17.7326 26.9286 16.2331C27.868 14.7335 28.3378 12.6468 28.3378 9.9729C28.3378 7.29901 27.868 5.21229 26.9286 3.71274C26.0072 2.21319 24.7154 1.46342 23.0532 1.46342C21.4091 1.46342 20.1174 2.21319 19.1779 3.71274C18.2565 5.21229 17.7958 7.29901 17.7958 9.9729C17.7958 12.6468 18.2565 14.7335 19.1779 16.2331Z" fill="#DA5D49"/>
<path d="M53.0223 3.46884C53.3114 4.10118 53.4559 4.76062 53.4559 5.44716C53.4559 6.11563 53.3837 6.71183 53.2391 7.23577C53.0946 7.74165 52.8688 8.24752 52.5616 8.75339C51.8931 9.8374 50.7459 10.5059 49.1199 10.7588C49.8245 10.9575 50.4568 11.3098 51.0169 11.8157C51.6131 12.3216 52.1732 13.0262 52.6971 13.9295C54.0521 16.2421 55.091 17.7326 55.8136 18.4011C56.3557 18.907 57.0422 19.1689 57.8733 19.187V19.458H54.4857C52.137 19.458 50.4568 19.196 49.4451 18.6721C47.9997 17.9313 46.9699 16.6576 46.3557 14.851C46.1931 14.327 46.0485 13.776 45.922 13.1978C45.8136 12.6197 45.7143 12.2042 45.6239 11.9512C45.5517 11.6802 45.4613 11.4363 45.3529 11.2195C45.2445 10.9846 45.1271 10.804 45.0006 10.6775C44.7838 10.4607 44.5309 10.2981 44.2418 10.1897V9.9187H44.6754C45.7233 9.9187 46.5092 9.43993 47.0332 8.48239C47.3042 7.97651 47.4668 7.43451 47.521 6.85637C47.5932 6.26016 47.6294 5.88979 47.6294 5.74526C47.6294 5.60072 47.6294 5.51039 47.6294 5.47426C47.5029 3.08943 46.4731 1.89702 44.5399 1.89702H43.3475V17.4797C43.3475 17.9494 43.5192 18.3559 43.8624 18.6992C44.2057 19.0244 44.6122 19.187 45.0819 19.187H45.4071V19.458H35.6781V19.187H36.0304C36.5002 19.187 36.8977 19.0244 37.2229 18.6992C37.5661 18.374 37.7468 17.9765 37.7649 17.5068V2.46613C37.7468 1.79765 37.4577 1.30081 36.8977 0.97561C36.6267 0.831075 36.3376 0.758808 36.0304 0.758808H35.6781V0.487805H46.2744C49.8155 0.487805 52.0648 1.48148 53.0223 3.46884Z" fill="#DA5D49"/>
<path d="M57.3582 19.187C57.8279 19.187 58.2254 19.0244 58.5506 18.6992C58.8938 18.3559 59.0745 17.9494 59.0926 17.4797V2.46613C59.0745 1.88799 58.8306 1.42728 58.3609 1.08401C58.0718 0.867209 57.7376 0.758808 57.3582 0.758808H57.0058V0.487805H69.0113C69.7881 0.487805 70.4747 0.424571 71.0709 0.298104C71.6852 0.171636 72.0736 0.0722675 72.2362 0V5.58266H71.9652V5.36585C71.9652 3.92051 71.4413 2.90876 70.3934 2.33062C69.8875 2.04155 69.2823 1.88799 68.5777 1.86992H64.6481V9.4309H67.6021C68.4693 9.41283 69.1739 9.13279 69.7159 8.59079C70.2579 8.03071 70.5289 7.31707 70.5289 6.44987V6.34146H70.7999V13.8753H70.5289V13.7398C70.5289 12.8907 70.2579 12.1951 69.7159 11.6531C69.1739 11.093 68.4783 10.804 67.6292 10.7859H64.6481V18.0759H67.9815C69.3003 18.0759 70.4657 17.6423 71.4774 16.7751C72.4891 15.9079 73.2028 14.7064 73.6183 13.1707H73.8893L72.8595 19.458H57.0058V19.187H57.3582Z" fill="#DA5D49"/>
<path d="M106.681 25.2033C106.247 25.2033 105.814 25.1762 105.38 25.122C103.574 24.8329 102.011 24.1554 100.692 23.0894C99.373 22.0235 98.3884 20.6956 97.738 19.1057C96.1662 19.5935 94.5131 19.8374 92.7786 19.8374C89.364 19.8374 86.5907 18.9341 84.4588 17.1274C82.345 15.3026 81.2881 12.9088 81.2881 9.9458C81.2881 6.98284 82.3721 4.60705 84.5402 2.81843C86.7082 1.01174 89.5627 0.108401 93.1038 0.108401C95.1454 0.108401 97.1327 0.31617 99.0659 0.731708C99.9331 0.912376 100.638 1.11111 101.18 1.32791L100.909 6.53117H100.665C100.231 4.83288 99.373 3.5682 98.0903 2.73713C96.8256 1.88799 95.2899 1.46342 93.4832 1.46342C91.6766 1.46342 90.186 2.25836 89.0117 3.84824C87.8373 5.43812 87.2502 7.53388 87.2502 10.1355C87.2502 11.7796 87.5031 13.234 88.009 14.4986C88.5149 15.7633 89.2375 16.748 90.177 17.4526C91.1165 18.1391 92.1553 18.4824 93.2935 18.4824C94.4498 18.4824 95.3532 18.2204 96.0036 17.6965C96.672 17.1545 97.0063 16.4499 97.0063 15.5827V11.897C97.0243 11.4995 96.9069 11.1924 96.654 10.9756C96.4191 10.7588 96.0758 10.6504 95.6242 10.6504H95.2177V10.3794H104.323V10.6504H103.89C103.456 10.6504 103.122 10.7588 102.887 10.9756C102.652 11.1924 102.544 11.4995 102.562 11.897V16.2873C102.562 17.3351 102.77 18.374 103.185 19.4038C104.125 21.6802 105.624 23.1436 107.684 23.794C108.28 23.9747 108.876 24.065 109.472 24.065C110.069 24.065 110.656 24.0018 111.234 23.8753L111.288 24.1463C109.662 24.851 108.126 25.2033 106.681 25.2033Z" fill="#DA5D49"/>
<path d="M105.816 19.187C106.286 19.187 106.683 19.0244 107.008 18.6992C107.351 18.3559 107.532 17.9494 107.55 17.4797V2.46613C107.532 1.88799 107.288 1.42728 106.818 1.08401C106.529 0.867209 106.195 0.758808 105.816 0.758808H105.463V0.487805H117.469C118.246 0.487805 118.932 0.424571 119.529 0.298104C120.143 0.171636 120.531 0.0722675 120.694 0V5.58266H120.423V5.36585C120.423 3.92051 119.899 2.90876 118.851 2.33062C118.345 2.04155 117.74 1.88799 117.035 1.86992H113.106V9.4309H116.06C116.927 9.41283 117.631 9.13279 118.173 8.59079C118.715 8.03071 118.987 7.31707 118.987 6.44987V6.34146H119.258V13.8753H118.987V13.7398C118.987 12.8907 118.715 12.1951 118.173 11.6531C117.631 11.093 116.936 10.804 116.087 10.7859H113.106V18.0759H116.439C117.758 18.0759 118.923 17.6423 119.935 16.7751C120.947 15.9079 121.66 14.7064 122.076 13.1707H122.347L121.317 19.458H105.463V19.187H105.816Z" fill="#DA5D49"/>
<path d="M145.545 0.758808C145.094 0.758808 144.705 0.921409 144.38 1.24661C144.055 1.55375 143.883 1.93315 143.865 2.38482V16.3686C143.865 17.7055 143.955 18.7353 144.136 19.458L144.217 19.8374H143.973L130.992 8.29268V17.5339C130.992 18.1843 131.272 18.6631 131.832 18.9702C132.085 19.1147 132.356 19.187 132.645 19.187H133.16V19.458H123.242V19.187H123.757C124.208 19.187 124.597 19.0334 124.922 18.7263C125.247 18.4011 125.41 18.0036 125.41 17.5339V3.46884C125.41 2.20416 125.319 1.20145 125.139 0.460705L125.057 0.0813014H125.328L138.309 11.626V2.41193C138.291 1.94219 138.12 1.55375 137.795 1.24661C137.469 0.921409 137.081 0.758808 136.629 0.758808H136.114V0.487805H146.033V0.758808H145.545Z" fill="#DA5D49"/>
<path d="M147.207 19.187C147.677 19.187 148.074 19.0244 148.4 18.6992C148.743 18.3559 148.924 17.9494 148.942 17.4797V2.43903C148.924 1.96929 148.743 1.57182 148.4 1.24661C148.074 0.921409 147.677 0.758808 147.207 0.758808H146.855V0.487805H156.584V0.758808H156.232C155.762 0.758808 155.355 0.921409 155.012 1.24661C154.687 1.57182 154.515 1.96929 154.497 2.43903V17.4797C154.497 17.9494 154.669 18.3559 155.012 18.6992C155.355 19.0244 155.762 19.187 156.232 19.187H156.584V19.458H146.855V19.187H147.207Z" fill="#DA5D49"/>
<path d="M158.534 19.187C159.004 19.187 159.401 19.0244 159.727 18.6992C160.07 18.3559 160.251 17.9494 160.269 17.4797V2.46613C160.251 1.88799 160.007 1.42728 159.537 1.08401C159.248 0.867209 158.914 0.758808 158.534 0.758808H158.182V0.487805H170.187C170.964 0.487805 171.651 0.424571 172.247 0.298104C172.861 0.171636 173.25 0.0722675 173.412 0V5.58266H173.141V5.36585C173.141 3.92051 172.617 2.90876 171.57 2.33062C171.064 2.04155 170.458 1.88799 169.754 1.86992H165.824V9.4309H168.778C169.645 9.41283 170.35 9.13279 170.892 8.59079C171.434 8.03071 171.705 7.31707 171.705 6.44987V6.34146H171.976V13.8753H171.705V13.7398C171.705 12.8907 171.434 12.1951 170.892 11.6531C170.35 11.093 169.654 10.804 168.805 10.7859H165.824V18.0759H169.158C170.476 18.0759 171.642 17.6423 172.654 16.7751C173.665 15.9079 174.379 14.7064 174.794 13.1707H175.065L174.036 19.458H158.182V19.187H158.534Z" fill="#DA5D49"/>
</svg>
